<?xml version="1.0"?>
<svg xmlns="http://www.w3.org/2000/svg" height="512px" viewBox="0 0 64 64" width="512px" class=""><g><g id="Human_Resource-Job_Search-Magnifying_Glass-Paper-Search" data-name="Human Resource-Job Search-Magnifying Glass-Paper-Search"><path d="m57.7 51.21-7.2-7.2a2.953 2.953 0 0 0 -.58-3.4 3.079 3.079 0 0 0 -3.4-.57l-2.29-2.29a17.954 17.954 0 0 0 -3.5-20.48 18.008 18.008 0 1 0 -4.99 28.96l2.29 2.28a3 3 0 0 0 .58 3.41 2.958 2.958 0 0 0 2.12.88 3 3 0 0 0 1.28-.3l7.2 7.2a6 6 0 0 0 8.49-8.49zm-41.01-9.9a16 16 0 1 1 22.62 0 16.006 16.006 0 0 1 -22.62 0zm20.88 3.92a18.177 18.177 0 0 0 3.16-2.5 18.379 18.379 0 0 0 2.5-3.16l1.74 1.74-5.66 5.66zm3.87 5.28a1 1 0 0 1 -1.42-1.42l7.07-7.07a1.014 1.014 0 0 1 1.42 0 1.033 1.033 0 0 1 .29.71.951.951 0 0 1 -.29.7v.01zm14.84 7.77a4 4 0 0 1 -5.65 0l-7.07-7.07 5.65-5.65 7.07 7.07a4 4 0 0 1 0 5.65z" data-original="#000000" class="active-path" data-old_color="#000000" fill="#FFFFFF"/><path d="m37.9 20.1a14 14 0 1 0 4.1 9.9 14.015 14.015 0 0 0 -4.1-9.9zm-2.9 19.63a12.014 12.014 0 0 1 -14 0v-.26a3.044 3.044 0 0 1 1.66-2.69l.57-.28.86 1.91a.985.985 0 0 0 .63.55.9.9 0 0 0 .28.04.967.967 0 0 0 .55-.17l2.45-1.63 2.45 1.63a.967.967 0 0 0 .55.17.9.9 0 0 0 .28-.04.985.985 0 0 0 .63-.55l.86-1.91.57.28a3.044 3.044 0 0 1 1.66 2.69zm-6.3-13.12a2.968 2.968 0 0 0 2.3 1.36v.03a3 3 0 0 1 -6 0v-.04a6.84 6.84 0 0 0 3.7-1.35zm-3.7-.66v-.95a3 3 0 0 1 6 0v.97a.988.988 0 0 1 -.66-.52l-.44-.9a1.008 1.008 0 0 0 -1.61-.26l-.24.25a4.979 4.979 0 0 1 -3.05 1.41zm5.98 9.66-.41.9-1-.67.63-.62zm-1.98-2.71v.69l-1 1-1-1v-.69a5.05 5.05 0 0 0 2 0zm-2.57 2.94-1 .67-.41-.9.78-.39zm10.38 2.29a5.016 5.016 0 0 0 -2.57-3.13l-3.24-1.62v-1.41a4.952 4.952 0 0 0 2-3.97v-3a5 5 0 0 0 -10 0v3a4.952 4.952 0 0 0 2 3.97v1.41l-3.24 1.62a5.016 5.016 0 0 0 -2.57 3.13 12 12 0 1 1 17.62 0z" data-original="#000000" class="active-path" data-old_color="#000000" fill="#FFFFFF"/><path d="m7 57v-50a3 3 0 0 1 3-3h31v5a3 3 0 0 0 3 3h5v26h2v-27a1 1 0 0 0 -.293-.707l-8-8a1 1 0 0 0 -.707-.293h-32a5.006 5.006 0 0 0 -5 5v50a5.006 5.006 0 0 0 5 5h36v-2h-36a3 3 0 0 1 -3-3zm36-48v-3.586l4.586 4.586h-3.586a1 1 0 0 1 -1-1z" data-original="#000000" class="active-path" data-old_color="#000000" fill="#FFFFFF"/><path d="m11 8h6v2h-6z" data-original="#000000" class="active-path" data-old_color="#000000" fill="#FFFFFF"/><path d="m11 12h6v2h-6z" data-original="#000000" class="active-path" data-old_color="#000000" fill="#FFFFFF"/><path d="m11 50h14v2h-14z" data-original="#000000" class="active-path" data-old_color="#000000" fill="#FFFFFF"/><path d="m11 54h14v2h-14z" data-original="#000000" class="active-path" data-old_color="#000000" fill="#FFFFFF"/></g></g> </svg>
